<?xml version="1.0" encoding="UTF-8"?>
<!DOCTYPE svg PUBLIC "-//W3C//DTD SVG 1.1//EN" "http://www.w3.org/Graphics/SVG/1.1/DTD/svg11.dtd">
<svg xmlns="http://www.w3.org/2000/svg" version="1.1" width="128px" height="128px" style="shape-rendering:geometricPrecision; text-rendering:geometricPrecision; image-rendering:optimizeQuality; fill-rule:evenodd; clip-rule:evenodd" xmlns:xlink="http://www.w3.org/1999/xlink">
<g><path style="opacity:1" fill="#512bd4" d="M 19.5,-0.5 C 38.1667,-0.5 56.8333,-0.5 75.5,-0.5C 85.6718,3.00606 92.0051,10.0061 94.5,20.5C 111.508,19.2207 122.508,26.554 127.5,42.5C 127.5,68.1667 127.5,93.8333 127.5,119.5C 125.833,123.167 123.167,125.833 119.5,127.5C 117.167,127.5 114.833,127.5 112.5,127.5C 104.899,122.356 97.2323,117.19 89.5,112C 77.1667,111.667 64.8333,111.333 52.5,111C 43.2795,108.614 36.6128,103.114 32.5,94.5C 28.0316,97.1367 23.6983,99.97 19.5,103C 11.1322,108.367 4.46552,106.867 -0.5,98.5C -0.5,72.1667 -0.5,45.8333 -0.5,19.5C 3.16667,9.83333 9.83333,3.16667 19.5,-0.5 Z M 21.5,10.5 C 38.8365,10.3334 56.1699,10.5001 73.5,11C 78.6408,12.8074 82.1408,16.3074 84,21.5C 84.6667,36.8333 84.6667,52.1667 84,67.5C 82.0919,73.7398 77.9253,77.5731 71.5,79C 58.8333,79.3333 46.1667,79.6667 33.5,80C 25.913,85.0432 18.413,90.2099 11,95.5C 10.3333,70.8333 10.3333,46.1667 11,21.5C 12.6844,15.9845 16.1844,12.3178 21.5,10.5 Z M 95.5,31.5 C 105.676,29.9988 112.51,33.9988 116,43.5C 116.833,67.8402 116.666,92.1735 115.5,116.5C 107.833,111.333 100.167,106.167 92.5,101C 79.5,100.667 66.5,100.333 53.5,100C 49.1571,98.3322 45.8238,95.4988 43.5,91.5C 54.5312,90.8804 65.5312,90.0471 76.5,89C 86.1725,85.3277 92.3391,78.4943 95,68.5C 95.4999,56.1712 95.6665,43.8378 95.5,31.5 Z"/></g>
</svg>
